HIERARCHY
ROOT root
{
	OFFSET	0	13.1	24.9
	CHANNELS 6  Xposition Yposition Zposition Xrotation Yrotation Zrotation
	JOINT spine_1
	{
		OFFSET	0	9.99999	0
		CHANNELS 3  Xrotation Yrotation Zrotation
		JOINT spine_2
		{
			OFFSET	0	112	-10
			CHANNELS 3  Xrotation Yrotation Zrotation
			JOINT spine_3
			{
				OFFSET	0	206.5	19.3
				CHANNELS 3  Xrotation Yrotation Zrotation
				JOINT spine_4
				{
					OFFSET	0	110.4	14.6
					CHANNELS 3  Xrotation Yrotation Zrotation
					JOINT neck_1
					{
						OFFSET	0	71.8	-50.3
						CHANNELS 3  Xrotation Yrotation Zrotation
						JOINT neck_2
						{
							OFFSET	0	86.2	-25.8
							CHANNELS 3  Xrotation Yrotation Zrotation
							JOINT head_ee
							{
								OFFSET	0	179.8	-8.7
								CHANNELS 3  Xrotation Yrotation Zrotation
								End Site
								{
									OFFSET	1	0	0
								}
							}
						}
					}
					JOINT left_clavicle
					{
						OFFSET	-43.2	22.4	-70.8
						CHANNELS 3  Xrotation Yrotation Zrotation
						JOINT left_shoulder
						{
							OFFSET	-93.9	-5.79999	48.7
							CHANNELS 3  Xrotation Yrotation Zrotation
							JOINT left_elbow
							{
								OFFSET	-291.4	-30.8	15.2
								CHANNELS 3  Xrotation Yrotation Zrotation
								JOINT left_lowarm_twist
								{
									OFFSET	-110.7	-3.89999	13.6
									CHANNELS 3  Xrotation Yrotation Zrotation
									JOINT left_hand
									{
										OFFSET	-110.7	-3.89999	13.6
										CHANNELS 3  Xrotation Yrotation Zrotation
										JOINT left_ee
										{
											OFFSET	-80.8	-5.10001	12.1
											CHANNELS 3  Xrotation Yrotation Zrotation
											End Site
											{
												OFFSET	1	0	0
											}
										}
									}
								}
							}
						}
					}
					JOINT right_clavicle
					{
						OFFSET	43.2	22.4	-70.8
						CHANNELS 3  Xrotation Yrotation Zrotation
						JOINT right_shoulder
						{
							OFFSET	93.9	-5.79999	48.7
							CHANNELS 3  Xrotation Yrotation Zrotation
							JOINT right_elbow
							{
								OFFSET	291.4	-30.8	15.2
								CHANNELS 3  Xrotation Yrotation Zrotation
								JOINT right_lowarm_twist
								{
									OFFSET	110.7	-3.89999	13.6
									CHANNELS 3  Xrotation Yrotation Zrotation
									JOINT right_hand
									{
										OFFSET	110.7	-3.89999	13.6
										CHANNELS 3  Xrotation Yrotation Zrotation
										JOINT right_ee
										{
											OFFSET	80.8	-5.10001	12.1
											CHANNELS 3  Xrotation Yrotation Zrotation
											End Site
											{
												OFFSET	1	0	0
											}
										}
									}
								}
							}
						}
					}
				}
			}
		}
	}
	JOINT left_hip
	{
		OFFSET	-82.8	-127.5	0.300001
		CHANNELS 3  Xrotation Yrotation Zrotation
		JOINT left_knee
		{
			OFFSET	-28.2	-396.7	2.2
			CHANNELS 3  Xrotation Yrotation Zrotation
			JOINT left_ankle
			{
				OFFSET	-11.7	-411.3	35.4
				CHANNELS 3  Xrotation Yrotation Zrotation
				JOINT left_toes
				{
					OFFSET	0	-60	-88.6
					CHANNELS 3  Xrotation Yrotation Zrotation
					JOINT left_foot_ee
					{
						OFFSET	-22.5	-16.5	-42.2
						CHANNELS 3  Xrotation Yrotation Zrotation
						End Site
						{
							OFFSET	1	0	0
						}
					}
				}
			}
		}
	}
	JOINT right_hip
	{
		OFFSET	82.8	-127.5	0.300001
		CHANNELS 3  Xrotation Yrotation Zrotation
		JOINT right_knee
		{
			OFFSET	28.2	-396.7	2.2
			CHANNELS 3  Xrotation Yrotation Zrotation
			JOINT right_ankle
			{
				OFFSET	11.7	-411.3	35.4
				CHANNELS 3  Xrotation Yrotation Zrotation
				JOINT right_toes
				{
					OFFSET	0	-60	-88.6
					CHANNELS 3  Xrotation Yrotation Zrotation
					JOINT right_foot_ee
					{
						OFFSET	22.5	-16.5	-42.2
						CHANNELS 3  Xrotation Yrotation Zrotation
						End Site
						{
							OFFSET	1	0	0
						}
					}
				}
			}
		}
	}
}
MOTION
Frames: 13
Frame Time: 0.02
2835.86612477 693.876 -1660.4636806 1.07222185874 39.5365436143 -1.91790265587 0.521091 0.409919 1.80876 0.522863 0.294012 1.83117 0.533059 -0.0801639 1.85288 0.528331 0.213419 1.84229 -14.84 12.1465 5.35027 -15.1065 20.0589 9.10759 -0.0 0.0 -0.0 6.69994 17.6239 12.4621 -8.08827 -22.4403 43.9673 0.942513 -25.0272 0.209189 -47.6466 -3.79858 4.55419 -3.35741 4.65393 -20.5944 -0.0 0.0 -0.0 12.2614 26.893 -23.8738 -16.2878 15.1617 -63.8623 0.953959 25.2933 -0.214055 79.3665 3.7657 8.57366 -1.70036 -11.2802 6.16097 0.0 0.0 0.0 -1.92678 17.9705 5.73741 5.61849 -0.271796 -0.818771 25.0791 -1.9353 -3.37752 -10.9642 0.0 0.0 -0.0 0.0 -0.0 16.5827 19.8409 3.76879 -48.9797 1.13447 -7.20614 25.0999 -6.22247 3.34237 -7.35019 0.0 0.0 0.0 0.0 0.0 
2825.4094379 694.282 -1653.67946447 2.33898845282 39.9142504748 -3.01973251508 0.329343 0.377499 1.85517 0.33122 0.258705 1.87542 0.340601 -0.130017 1.88871 0.335663 0.169847 1.88555 -15.1921 12.064 5.31437 -15.4722 19.9724 9.11248 -0.0 0.0 -0.0 6.80339 17.8679 12.6103 -7.17143 -22.3046 42.8677 0.979216 -25.8764 0.224963 -47.8151 -3.81797 4.56378 -3.24937 3.60265 -20.3925 -0.0 0.0 -0.0 12.4836 27.5251 -24.3041 -16.791 13.952 -63.6237 0.869018 23.291 -0.179106 79.3195 3.76031 8.57094 -1.86457 -10.7556 7.46349 0.0 0.0 0.0 -5.55772 18.3081 8.12538 6.13483 -0.300788 -0.892632 26.1511 -1.29898 -3.49547 -10.8674 0.0 0.0 -0.0 0.0 -0.0 16.6441 15.4213 4.13582 -46.5741 0.937062 -6.89287 26.2544 -3.01885 3.48122 -7.6589 0.0 0.0 0.0 0.0 0.0 
2813.52629619 693.664 -1643.31198257 3.71732675891 41.1013414805 -4.60608592627 0.193398 0.304613 1.99969 0.195606 0.176776 2.01502 0.202875 -0.243635 2.00803 0.197256 0.0764866 2.02131 -15.3514 12.2381 5.5609 -15.6387 20.1851 9.43404 -0.0 0.0 -0.0 6.92128 16.779 12.8738 -6.47093 -22.1908 42.1763 1.03035 -27.0394 0.247747 -48.0341 -3.8432 4.57616 -3.18063 2.808 -20.3239 -0.0 0.0 -0.0 12.6733 27.8588 -24.6958 -17.0676 13.0901 -63.4011 0.800909 21.6404 -0.153077 79.2652 3.75408 8.5678 -2.00353 -10.3715 8.54502 0.0 0.0 0.0 -7.93539 17.9685 9.59426 6.54244 -0.324145 -0.950755 25.9109 -0.913592 -3.46488 -11.0151 0.0 0.0 -0.0 0.0 -0.0 16.56 12.6571 4.46682 -44.7223 0.794193 -6.64632 26.7979 -1.22591 3.55108 -7.88843 0.0 0.0 0.0 0.0 0.0 
2798.40291815 695.954 -1622.96158398 4.70330121698 45.5364469724 -5.72409345487 0.0382677 0.249784 2.11757 0.0407553 0.114563 2.12917 0.0462233 -0.333921 2.10595 0.0400337 0.00278595 2.13224 -16.0692 12.5783 5.58479 -16.4213 20.9281 9.72683 -0.0 0.0 -0.0 6.93217 15.5947 12.9692 -5.04934 -22.5602 40.9996 1.29338 -32.6464 0.378795 -48.303 -3.87424 4.59122 -3.01769 1.82959 -19.6764 -0.0 0.0 -0.0 12.833 27.2337 -25.142 -19.5291 11.3054 -63.1853 0.61707 16.9974 -0.0922082 79.3087 3.75908 8.57032 -2.27171 -11.0436 9.94895 0.0 0.0 0.0 -10.4362 19.2171 11.3915 9.03118 -0.475699 -1.30197 22.5722 0.653059 -3.06245 -11.5813 0.0 0.0 -0.0 0.0 -0.0 16.4351 12.0994 3.71882 -40.9221 0.526469 -6.12687 24.8996 -2.81169 3.32654 -9.82955 0.0 0.0 0.0 0.0 0.0 
2789.30457452 696.985 -1595.95877033 1.60832470967 49.8848352158 -1.34767432988 0.400453 0.267012 1.39893 0.401524 0.177463 1.41308 0.406388 -0.113436 1.41966 0.403593 0.112173 1.41976 -14.8092 13.555 5.49864 -15.1727 22.6683 9.74209 -0.0 0.0 -0.0 6.74189 13.9949 12.7437 -2.91054 -23.3902 41.0309 1.67162 -39.624 0.602254 -48.2701 -3.87045 4.58938 -3.05201 1.48884 -20.094 -0.0 0.0 -0.0 12.3956 26.4468 -24.2341 -20.6165 8.53913 -63.681 0.507537 14.1129 -0.0628258 79.2459 3.75188 8.56669 -2.48545 -10.7121 11.5044 0.0 0.0 0.0 -7.39778 18.4143 9.08096 6.39129 -0.315435 -0.929221 23.9893 1.1299 -3.22819 -11.5974 0.0 0.0 -0.0 0.0 -0.0 23.8177 5.18965 -4.19364 -21.8185 -0.269601 -3.31716 27.0467 2.92302 3.61223 -15.6755 0.0 0.0 0.0 0.0 0.0 
2789.87542412 696.985 -1593.00240099 1.62306974409 50.3218672537 -1.36689340683 0.400453 0.267012 1.39893 0.401524 0.177463 1.41308 0.406388 -0.113436 1.41966 0.403593 0.112173 1.41976 -14.8092 13.555 5.49864 -15.1727 22.6683 9.74209 -0.0 0.0 -0.0 6.74189 13.9949 12.7437 -2.91054 -23.3902 41.0309 1.67162 -39.624 0.602254 -48.2701 -3.87045 4.58938 -3.05201 1.48884 -20.094 -0.0 0.0 -0.0 12.3956 26.4468 -24.2341 -20.6165 8.53913 -63.681 0.507537 14.1129 -0.0628258 79.2459 3.75188 8.56669 -2.48545 -10.7121 11.5044 0.0 0.0 0.0 -7.39778 18.4143 9.08096 6.39129 -0.315435 -0.929221 23.9893 1.1299 -3.22819 -11.5974 0.0 0.0 -0.0 0.0 -0.0 23.8177 5.18965 -4.19364 -21.8185 -0.269601 -3.31716 27.0467 2.92302 3.61223 -15.6755 0.0 0.0 0.0 0.0 0.0 
2790.06914985 696.985 -1592.02577821 1.6280261274 50.4663812586 -1.37332652133 0.400453 0.267012 1.39893 0.401524 0.177463 1.41308 0.406388 -0.113436 1.41966 0.403593 0.112173 1.41976 -14.8092 13.555 5.49864 -15.1727 22.6683 9.74209 -0.0 0.0 -0.0 6.74189 13.9949 12.7437 -2.91054 -23.3902 41.0309 1.67162 -39.624 0.602254 -48.2701 -3.87045 4.58938 -3.05201 1.48884 -20.094 -0.0 0.0 -0.0 12.3956 26.4468 -24.2341 -20.6165 8.53913 -63.681 0.507537 14.1129 -0.0628258 79.2459 3.75188 8.56669 -2.48545 -10.7121 11.5044 0.0 0.0 0.0 -7.39778 18.4143 9.08096 6.39129 -0.315435 -0.929221 23.9893 1.1299 -3.22819 -11.5974 0.0 0.0 -0.0 0.0 -0.0 23.8177 5.18965 -4.19364 -21.8185 -0.269601 -3.31716 27.0467 2.92302 3.61223 -15.6755 0.0 0.0 0.0 0.0 0.0 
2760.23802062 696.461 -1594.18267305 -0.0614830998204 51.820651051 0.120376532358 0.53836 0.18986 1.47829 0.539571 0.0954184 1.48737 0.542487 -0.20539 1.47621 0.539447 0.0303008 1.49012 -12.0316 14.8214 2.93807 -12.4112 26.2614 7.14132 -0.0 0.0 -0.0 6.97362 17.1177 12.935 1.88689 -22.0296 42.471 2.04741 -45.3993 0.85651 -51.4108 -4.238 4.75465 -2.52803 3.9534 -15.1976 -0.0 0.0 -0.0 11.4347 21.249 -22.5477 -22.5149 7.37458 -64.7329 0.568386 15.7254 -0.0784934 78.5812 3.67596 8.52778 -3.74547 -17.0404 16.1448 0.0 0.0 0.0 -8.20255 22.2996 9.49755 2.41527 -0.106969 -0.355148 25.291 1.06411 -3.3802 -11.9533 0.0 0.0 -0.0 0.0 -0.0 25.5548 2.79955 -8.4457 -1.16719 -0.0462967 -0.173135 16.0035 4.49225 2.27261 -15.2001 0.0 0.0 0.0 0.0 0.0 
2759.86743251 696.461 -1596.26901441 -0.0610951084763 51.533966114 0.119881981851 0.53836 0.18986 1.47829 0.539571 0.0954184 1.48737 0.542487 -0.20539 1.47621 0.539447 0.0303008 1.49012 -12.0316 14.8214 2.93807 -12.4112 26.2614 7.14132 -0.0 0.0 -0.0 6.97362 17.1177 12.935 1.88689 -22.0296 42.471 2.04741 -45.3993 0.85651 -51.4108 -4.238 4.75465 -2.52803 3.9534 -15.1976 -0.0 0.0 -0.0 11.4347 21.249 -22.5477 -22.5149 7.37458 -64.7329 0.568386 15.7254 -0.0784934 78.5812 3.67596 8.52778 -3.74547 -17.0404 16.1448 0.0 0.0 0.0 -8.20255 22.2996 9.49755 2.41527 -0.106969 -0.355148 25.291 1.06411 -3.3802 -11.9533 0.0 0.0 -0.0 0.0 -0.0 25.5548 2.79955 -8.4457 -1.16719 -0.0462967 -0.173135 16.0035 4.49225 2.27261 -15.2001 0.0 0.0 0.0 0.0 0.0 
2733.70557857 691.156 -1596.57486364 -0.649982472318 53.4481529302 0.482904855525 0.732321 0.0911208 1.42218 0.733447 0.000448245 1.4251 0.733752 -0.281272 1.39707 0.731033 -0.0571235 1.42395 -11.2116 14.6431 1.75792 -11.5508 26.5738 5.7659 -0.0 0.0 -0.0 6.41923 19.2015 11.9201 3.41277 -23.5677 44.5303 2.40503 -49.9837 1.1212 -54.5932 -4.61903 4.90131 -2.08005 6.38369 -10.981 -0.0 0.0 -0.0 10.7467 18.7348 -21.1674 -22.7853 7.52696 -65.9332 0.554155 15.3504 -0.0746813 76.9053 3.48659 8.42578 -4.35009 -21.3669 17.2303 0.0 0.0 0.0 -8.95193 22.7464 9.49351 -0.597679 0.0241485 0.0885413 27.041 1.34885 -3.57772 -13.2241 0.0 0.0 -0.0 0.0 -0.0 26.2155 1.85081 -10.3585 6.47459 0.320228 0.941091 4.0842 9.91838 0.622333 -14.0453 0.0 0.0 0.0 0.0 0.0 
2719.82019194 689.36 -1597.06218463 -0.467206968997 54.4145179577 0.393569472514 0.636725 0.0583924 1.29306 0.637655 -0.0239997 1.29416 0.637365 -0.281475 1.26341 0.635146 -0.0784287 1.292 -11.5221 15.5756 1.83676 -11.9436 28.333 6.20843 -0.0 0.0 -0.0 5.76189 19.5637 10.8917 3.15541 -24.582 46.2879 2.6186 -52.3623 1.28761 -55.3288 -4.7082 4.93217 -1.87329 7.24285 -9.19921 -0.0 0.0 -0.0 10.5378 16.9554 -20.8007 -24.5011 9.32731 -65.5479 0.621511 17.1126 -0.0935108 75.7775 3.36086 8.35405 -4.75146 -25.0493 17.1694 0.0 0.0 0.0 -10.4299 22.0458 9.87829 0.338254 -0.0140761 -0.0499991 26.9248 1.21296 -3.56544 -14.1048 0.0 0.0 -0.0 0.0 -0.0 26.9539 1.56054 -10.8398 5.67554 0.274967 0.826945 -0.94922 12.7192 -0.149296 -11.9807 0.0 0.0 0.0 0.0 0.0 
2710.12124489 687.799 -1599.10887947 -0.461064339691 56.107023213 0.0711476695026 0.622227 0.0423128 1.22731 0.623064 -0.0358638 1.22752 0.622519 -0.280127 1.19567 0.620534 -0.0877925 1.2249 -11.6546 15.3504 1.75915 -12.0768 27.9712 6.10012 -0.0 0.0 -0.0 5.58946 19.1891 10.6447 2.6837 -25.4215 47.0992 2.81956 -54.3887 1.44892 -55.1404 -4.68533 4.92438 -1.59845 7.41131 -7.31449 -0.0 0.0 -0.0 10.3826 16.0907 -20.4964 -24.8815 8.26435 -65.2823 0.639364 17.5742 -0.0988327 75.6274 3.34424 8.34432 -4.9301 -25.9462 17.5941 0.0 0.0 0.0 -11.8561 21.7143 10.6425 1.41957 -0.0610542 -0.209275 26.5609 0.575802 -3.52823 -15.0125 0.0 0.0 -0.0 0.0 -0.0 28.5493 2.05216 -9.96558 4.44934 0.208627 0.650605 -6.72589 17.2954 -1.10948 -10.891 0.0 0.0 0.0 0.0 0.0 
2675.3377127 676.967 -1601.04252527 -1.67491104511 57.5783825051 1.23075521466 0.78547 0.149738 1.00651 0.78603 0.0853913 1.01399 0.787716 -0.115753 1.01098 0.786292 0.0453561 1.01657 -9.42364 16.4029 -1.5669 -9.71154 31.9024 2.57774 -0.0 0.0 -0.0 5.77284 17.1693 11.011 3.74215 -23.4845 49.195 3.08602 -56.7977 1.66881 -52.7147 -4.39314 4.81729 -1.47722 12.1695 -4.32579 -0.0 0.0 -0.0 10.219 15.5177 -20.1576 -26.9338 9.47098 -65.5986 0.74218 20.1862 -0.132112 78.2086 3.63361 8.50558 -6.54518 -29.2604 24.5793 0.0 0.0 0.0 -13.2573 20.0207 10.6158 3.94993 -0.182695 -0.578394 28.4238 0.312798 -3.73755 -15.2275 0.0 0.0 -0.0 0.0 -0.0 30.4813 2.90539 -10.3272 4.49413 0.210983 0.657071 -12.2797 28.6125 -2.30913 -8.30164 0.0 0.0 0.0 0.0 0.0 
